<?xml version="1.0" encoding="UTF-8"?>
<svg version="1.1" xmlns="http://www.w3.org/2000/svg" width="513" height="132">
<path d="M0 0 C2.90380762 5.55511022 2.90380762 5.55511022 3.5 8.3125 C3.7475 9.1478125 3.7475 9.1478125 4 10 C4.99 10.33 5.98 10.66 7 11 C8.6484375 12.7421875 8.6484375 12.7421875 10.375 14.875 C13.01446398 18.0132162 15.37482365 20.02263108 19 22 C19 22.66 19 23.32 19 24 C21.31 24.33 23.62 24.66 26 25 C25.875 28.25 25.875 28.25 25 32 C21.85028521 34.67041036 20.16534658 36 16 36 C16 36.66 16 37.32 16 38 C12.53846154 41 12.53846154 41 10 41 C10.33 41.66 10.66 42.32 11 43 C13.29426252 42.21527835 15.58522223 41.42261339 17.875 40.625 C18.52597656 40.40328125 19.17695312 40.1815625 19.84765625 39.953125 C22.76550545 38.93037374 24.78556651 38.21443349 27 36 C27.9075 35.71125 28.815 35.4225 29.75 35.125 C33.92048341 33.68137113 37.75618042 32.16620264 40.04296875 28.18359375 C40.77298243 26.48708309 41.39585695 24.74530214 42 23 C44.31 23 46.62 23 49 23 C49 23.66 49 24.32 49 25 C49.66 25 50.32 25 51 25 C50.13018782 29.67524044 49.66694409 31.40413811 46.03125 34.65234375 C44.86730901 35.43399712 43.68965926 36.19557584 42.5 36.9375 C41.90574219 37.33517578 41.31148438 37.73285156 40.69921875 38.14257812 C36.34177334 41 36.34177334 41 34 41 C35.55901182 43.14579161 35.55901182 43.14579161 38 45 C41.62535976 45.2503577 41.62535976 45.2503577 45 45 C46 46 46 46 46.0625 49.5625 C46.041875 50.696875 46.02125 51.83125 46 53 C45.01 53 44.02 53 43 53 C43 54.32 43 55.64 43 57 C37.375 60 37.375 60 34 60 C33.67 61.65 33.34 63.3 33 65 C32.34 65 31.68 65 31 65 C31 65.66 31 66.32 31 67 C29.25 67.75 29.25 67.75 27 68 C24.75 66.3125 24.75 66.3125 23 64 C23 62.68 23 61.36 23 60 C22.01 60 21.02 60 20 60 C20 59.01 20 58.02 20 57 C17.03 56.505 17.03 56.505 14 56 C13.67 54.35 13.34 52.7 13 51 C11.72125 50.938125 10.4425 50.87625 9.125 50.8125 C8.40570313 50.77769531 7.68640625 50.74289063 6.9453125 50.70703125 C6.30335937 50.80371094 5.66140625 50.90039062 5 51 C4.34 51.99 3.68 52.98 3 54 C2.34 54 1.68 54 1 54 C0.67 54.99 0.34 55.98 0 57 C-1.258125 56.979375 -2.51625 56.95875 -3.8125 56.9375 C-10.95947771 56.94871975 -17.91921586 57.3545756 -24.8125 59.3125 C-27.30089137 59.93459784 -28.49554552 60.20324096 -30.890625 59.23828125 C-32.5625 58.125 -32.5625 58.125 -35 56 C-34.25 49.375 -34.25 49.375 -32 46 C-29 45.6875 -29 45.6875 -26 46 C-24 48 -24 48 -24 51 C-19.71 51 -15.42 51 -11 51 C-11 50.01 -11 49.02 -11 48 C-11.66 48 -12.32 48 -13 48 C-13 47.01 -13 46.02 -13 45 C-13.61875 44.690625 -14.2375 44.38125 -14.875 44.0625 C-16.25 43.375 -17.625 42.6875 -19 42 C-19 41.01 -19 40.02 -19 39 C-21.93720508 37.47700477 -24.9168649 36.19899698 -28 35 C-28 34.34 -28 33.68 -28 33 C-28.99 33 -29.98 33 -31 33 C-32.28598045 27.28453134 -32.64496486 21.63194377 -29.4375 16.5 C-28.963125 16.005 -28.48875 15.51 -28 15 C-27.278125 15.144375 -26.55625 15.28875 -25.8125 15.4375 C-24.4203125 15.7159375 -24.4203125 15.7159375 -23 16 C-21.33333333 16.33333333 -19.66666667 16.66666667 -18 17 C-17.66226563 16.50628906 -17.32453125 16.01257813 -16.9765625 15.50390625 C-16.53054687 14.86324219 -16.08453125 14.22257812 -15.625 13.5625 C-15.18414062 12.92441406 -14.74328125 12.28632812 -14.2890625 11.62890625 C-13 10 -13 10 -11 9 C-9.94978897 7.15028304 -9.94978897 7.15028304 -9 5 C-6.79710315 0.18116315 -5.24175513 -0.13794092 0 0 Z M7 44 C7 44.66 7 45.32 7 46 C7.66 46 8.32 46 9 46 C9 45.34 9 44.68 9 44 C8.34 44 7.68 44 7 44 Z " fill="#D5D1FC" transform="translate(56,46)"/>
<path d="M0 0 C15.18 0 30.36 0 46 0 C46 3.63 46 7.26 46 11 C36.76 11 27.52 11 18 11 C18 12.65 18 14.3 18 16 C25.92 16 33.84 16 42 16 C42 18.97 42 21.94 42 25 C34.08 25 26.16 25 18 25 C18 26.65 18 28.3 18 30 C27.9 30 37.8 30 48 30 C48 33.3 48 36.6 48 40 C32.16 40 16.32 40 0 40 C0 26.8 0 13.6 0 0 Z " fill="#5638F6" transform="translate(270,58)"/>
<path d="M0 0 C15.18 0 30.36 0 46 0 C46 3.63 46 7.26 46 11 C36.43 11 26.86 11 17 11 C17 12.65 17 14.3 17 16 C24.92 16 32.84 16 41 16 C41 18.97 41 21.94 41 25 C33.08 25 25.16 25 17 25 C17 26.65 17 28.3 17 30 C27.23 30 37.46 30 48 30 C48 33.3 48 36.6 48 40 C32.16 40 16.32 40 0 40 C0 26.8 0 13.6 0 0 Z " fill="#6246F5" transform="translate(451,58)"/>
<path d="M0 0 C5.3625 -0.04125 10.725 -0.0825 16.25 -0.125 C17.91579102 -0.14320801 19.58158203 -0.16141602 21.29785156 -0.18017578 C44.71031856 -0.33051283 44.71031856 -0.33051283 52 6 C54.99051581 10.48577371 54.69903796 14.74594047 54 20 C51.52041181 24.62856462 49.47482023 26.08827834 44.53125 27.64453125 C38.76879382 29.28150925 33.32675501 29.34245223 27.375 29.1875 C26.37082031 29.17396484 25.36664063 29.16042969 24.33203125 29.14648438 C21.88778252 29.11156654 19.4438152 29.05777847 17 29 C17 32.96 17 36.92 17 41 C11.39 40.67 5.78 40.34 0 40 C0 26.8 0 13.6 0 0 Z M17 11 C17 13.31 17 15.62 17 18 C20.18444622 19.59222311 23.53289272 18.90874024 27 18.6875 C27.73734375 18.65205078 28.4746875 18.61660156 29.234375 18.58007812 C33.58070023 18.44327303 33.58070023 18.44327303 37 16 C36.91428339 13.90708843 36.91428339 13.90708843 36 12 C32.23699626 10.74566542 28.72789091 10.89304578 24.8125 10.9375 C23.68811523 10.94426758 23.68811523 10.94426758 22.54101562 10.95117188 C20.69397617 10.96293646 18.84697787 10.98087135 17 11 Z " fill="#593BFA" transform="translate(128,58)"/>
<path d="M0 0 C1.22244667 0.00333092 1.22244667 0.00333092 2.46958923 0.00672913 C3.39046829 0.00680466 4.31134735 0.00688019 5.26013184 0.00695801 C6.2611644 0.01211929 7.26219696 0.01728058 8.29356384 0.02259827 C9.31316696 0.02401321 10.33277008 0.02542816 11.38327026 0.02688599 C14.65417867 0.03250355 17.92501972 0.04505902 21.19590759 0.05775452 C23.40749515 0.06276725 25.61908377 0.06733055 27.83067322 0.07142639 C33.26494116 0.08247868 38.69916957 0.09923389 44.13340759 0.12025452 C44.21468828 1.88014831 44.272726 3.64112613 44.32090759 5.40223694 C44.37311462 6.87293892 44.37311462 6.87293892 44.42637634 8.37335205 C44.09050713 11.52249326 43.42933043 12.50111767 41.13340759 14.60853577 C39.8260841 15.58574035 38.49126826 16.52708464 37.13340759 17.43275452 C36.48500916 17.90519592 35.83661072 18.37763733 35.16856384 18.86439514 C33.17632677 20.31024641 31.15458678 21.71514629 29.13340759 23.12025452 C26.49340759 25.10025452 23.85340759 27.08025452 21.13340759 29.12025452 C28.72340759 29.45025452 36.31340759 29.78025452 44.13340759 30.12025452 C44.13340759 33.42025452 44.13340759 36.72025452 44.13340759 40.12025452 C28.62340759 40.12025452 13.11340759 40.12025452 -2.86659241 40.12025452 C-2.86659241 30.12025452 -2.86659241 30.12025452 0.13340759 26.72962952 C1.44300148 25.74414035 2.77766877 24.79123079 4.13340759 23.87025452 C4.78180603 23.39330139 5.43020447 22.91634827 6.09825134 22.42494202 C8.09152122 20.96452646 10.1127273 19.54250257 12.13340759 18.12025452 C14.77340759 16.14025452 17.41340759 14.16025452 20.13340759 12.12025452 C8.74840759 11.62525452 8.74840759 11.62525452 -2.86659241 11.12025452 C-2.86659241 0.18467914 -2.86659241 0.18467914 0 0 Z " fill="#5E41FC" transform="translate(400.86659240722656,57.87974548339844)"/>
<path d="M0 0 C16.5172237 -1.61933566 16.5172237 -1.61933566 21.421875 2.2265625 C23.84023407 4.70782686 25.9940281 7.17752698 28 10 C29.08518111 9.08552154 30.16804738 8.16829593 31.25 7.25 C31.85328125 6.73953125 32.4565625 6.2290625 33.078125 5.703125 C35.08389809 4.03792382 35.08389809 4.03792382 36.65625 1.8125 C40.2849811 -0.99371872 43.80443013 -0.43060128 48.25 -0.25 C49.09046875 -0.23195312 49.9309375 -0.21390625 50.796875 -0.1953125 C52.86507395 -0.14830798 54.93268441 -0.07656724 57 0 C55.5865911 3.25398137 53.90645106 5.27660061 51.3046875 7.671875 C50.58925781 8.33574219 49.87382812 8.99960938 49.13671875 9.68359375 C48.39035156 10.36550781 47.64398438 11.04742187 46.875 11.75 C46.12089844 12.44738281 45.36679688 13.14476563 44.58984375 13.86328125 C42.73124309 15.58072237 40.86789532 17.29268148 39 19 C40.4242952 22.25779266 42.15624068 24.38119131 44.6953125 26.85546875 C45.41074219 27.55994141 46.12617188 28.26441406 46.86328125 28.99023438 C47.98283203 30.07788086 47.98283203 30.07788086 49.125 31.1875 C50.60889524 32.63715151 52.09078584 34.08885891 53.5703125 35.54296875 C54.22789551 36.18258545 54.88547852 36.82220215 55.56298828 37.48120117 C57 39 57 39 57 40 C40.4827763 41.61933566 40.4827763 41.61933566 35.578125 37.7734375 C33.15976593 35.29217314 31.0059719 32.82247302 29 30 C28.0925 30.721875 27.185 31.44375 26.25 32.1875 C25.73953125 32.59355469 25.2290625 32.99960938 24.703125 33.41796875 C22.8210607 35.01915945 22.8210607 35.01915945 21.40625 37.65625 C18.67428801 40.31725194 18.09756021 40.35926505 14.453125 40.48828125 C12.71807644 40.45516964 10.98336829 40.39571192 9.25 40.3125 C8.36183594 40.28994141 7.47367188 40.26738281 6.55859375 40.24414062 C4.37067188 40.18532552 2.18620329 40.10321268 0 40 C5.81783237 33.11599004 11.7569859 26.43226057 19 21 C17.89973587 17.6992076 17.17290663 17.07519718 14.5625 14.9375 C9.42748157 10.58531559 4.59734898 5.91765608 0 1 C0 0.67 0 0.34 0 0 Z " fill="#6044F6" transform="translate(209,58)"/>
<path d="M0 0 C0.99 0 1.98 0 3 0 C3.33 1.65 3.66 3.3 4 5 C4.99 5 5.98 5 7 5 C7 5.66 7 6.32 7 7 C7.86625 7.433125 7.86625 7.433125 8.75 7.875 C10.83333333 8.91666667 12.91666667 9.95833333 15 11 C15 11.66 15 12.32 15 13 C15.66 13 16.32 13 17 13 C17.495 14.485 17.495 14.485 18 16 C20.83079807 18.62859821 23.20051686 19.47229401 27 20 C27.495 22.475 27.495 22.475 28 25 C27.05125 25.474375 26.1025 25.94875 25.125 26.4375 C17.39150468 30.88820547 10.85160665 36.44518004 8 45 C6.6875 47.4375 6.6875 47.4375 5 49 C2 49.5625 2 49.5625 -1 49 C-3.70361469 45.75566237 -4 44.29107948 -4 40 C-4.99 40 -5.98 40 -7 40 C-7.185625 39.278125 -7.37125 38.55625 -7.5625 37.8125 C-10.52083414 32.02445493 -16.61106108 29.51428522 -22.3984375 27.08984375 C-24 26 -24 26 -24.7890625 23.94140625 C-24.85867187 23.30074219 -24.92828125 22.66007812 -25 22 C-24.67 21.67 -24.34 21.34 -24 21 C-23.76924918 19.65252916 -23.58846937 18.29622435 -23.4375 16.9375 C-23.293125 15.638125 -23.14875 14.33875 -23 13 C-22.278125 13.144375 -21.55625 13.28875 -20.8125 13.4375 C-19.4203125 13.7159375 -19.4203125 13.7159375 -18 14 C-16.33333333 14.33333333 -14.66666667 14.66666667 -13 15 C-13 14.34 -13 13.68 -13 13 C-10.35261084 11.5393715 -9.10551666 11 -6 11 C-6 10.01 -6 9.02 -6 8 C-5.01 8 -4.02 8 -3 8 C-3 6.68 -3 5.36 -3 4 C-2.01 4 -1.02 4 0 4 C0 2.68 0 1.36 0 0 Z " fill="#6A5CFB" transform="translate(51,52)"/>
<path d="M0 0 C5.61 0 11.22 0 17 0 C17 9.9 17 19.8 17 30 C26.9 30 36.8 30 47 30 C47 33.3 47 36.6 47 40 C31.49 40 15.98 40 0 40 C0 26.8 0 13.6 0 0 Z " fill="#5D41F5" transform="translate(324,58)"/>
<path d="M0 0 C5.61 0 11.22 0 17 0 C18 1 18 1 18.11352539 4.69360352 C18.11336624 6.33871292 18.10766988 7.98382731 18.09765625 9.62890625 C18.0962413 10.49313705 18.09482635 11.35736786 18.09336853 12.24778748 C18.08775239 15.01939292 18.07519719 17.7909188 18.0625 20.5625 C18.05748708 22.4368478 18.05292381 24.31119685 18.04882812 26.18554688 C18.03862681 30.79042021 18.01905467 35.3951206 18 40 C12.06 40 6.12 40 0 40 C0 26.8 0 13.6 0 0 Z " fill="#5536FC" transform="translate(375,58)"/>
<path d="M0 0 C5.61 0 11.22 0 17 0 C17 13.2 17 26.4 17 40 C11.39 40 5.78 40 0 40 C0 26.8 0 13.6 0 0 Z " fill="#5D41F5" transform="translate(188,58)"/>
<path d="M0 0 C2.01362453 4.02724906 0.41158984 9.70117282 0 14 C7.92 14.33 15.84 14.66 24 15 C24 18.3 24 21.6 24 25 C8.49 25 -7.02 25 -23 25 C-23 15 -23 15 -19.89453125 11.3984375 C-18.55830752 10.358421 -17.19633797 9.35076668 -15.8125 8.375 C-15.13896484 7.84777344 -14.46542969 7.32054688 -13.77148438 6.77734375 C-10.08329185 4.00670156 -7.76389494 2.45705609 -3 3 C-1.18523997 1.60414215 -1.18523997 1.60414215 0 0 Z " fill="#5D41F5" transform="translate(421,73)"/>
<path d="M0 0 C2.3125 -0.25 2.3125 -0.25 5 0 C6.8125 1.8125 6.8125 1.8125 8 4 C8 4.99 8 5.98 8 7 C8.66 6.67 9.32 6.34 10 6 C13.4375 5.625 13.4375 5.625 17 6 C19 8.0625 19 8.0625 20 11 C19.93059081 14.95632375 19.64554288 17.17637633 17.1875 20.3125 C13.99889036 22.77228458 12.07405404 24 8 24 C7.896875 24.5775 7.79375 25.155 7.6875 25.75 C6.90207202 28.32049158 5.69495803 29.93657284 4 32 C2.68 31.67 1.36 31.34 0 31 C0 30.34 0 29.68 0 29 C-0.99 28.67 -1.98 28.34 -3 28 C-3 26.68 -3 25.36 -3 24 C-3.99 23.67 -4.98 23.34 -6 23 C-6 22.34 -6 21.68 -6 21 C-7.98 20.67 -9.96 20.34 -12 20 C-12 17.36 -12 14.72 -12 12 C-10.88625 11.4225 -9.7725 10.845 -8.625 10.25 C-5.66807857 8.57739798 -4.07684279 7.35017758 -3 4 C-2.34 4 -1.68 4 -1 4 C-0.67 2.68 -0.34 1.36 0 0 Z " fill="#A6BAF5" transform="translate(82,37)"/>
<path d="M0 0 C0.33 0.99 0.66 1.98 1 3 C-0.3125 5.1875 -0.3125 5.1875 -2 7 C-2.66 7 -3.32 7 -4 7 C-4 7.66 -4 8.32 -4 9 C-7.85645121 9.22036864 -10.49223216 8.60355101 -14 7 C-13.979375 8.2375 -13.95875 9.475 -13.9375 10.75 C-13.88851401 13.68915923 -14.19071295 16.17068148 -15 19 C-14.27554687 19.37511719 -13.55109375 19.75023438 -12.8046875 20.13671875 C-2.07211643 25.81782637 -2.07211643 25.81782637 2 30 C2 31.32 2 32.64 2 34 C2.99 34 3.98 34 5 34 C5.99 36.97 6.98 39.94 8 43 C9.65 43 11.3 43 13 43 C13 43.33 13 43.66 13 44 C11.73285156 44.12117188 10.46570313 44.24234375 9.16015625 44.3671875 C7.46090914 44.5361734 5.76169195 44.70546037 4.0625 44.875 C3.23169922 44.95363281 2.40089844 45.03226563 1.54492188 45.11328125 C-3.46473828 45.62009512 -8.18453619 46.42412289 -13.03710938 47.78515625 C-15.51719281 48.05660817 -16.51096264 47.49587596 -18.5625 46.125 C-19.7690625 45.073125 -19.7690625 45.073125 -21 44 C-20.25 37.375 -20.25 37.375 -18 34 C-15 33.6875 -15 33.6875 -12 34 C-10 36 -10 36 -10 39 C-5.71 39 -1.42 39 3 39 C3 38.01 3 37.02 3 36 C2.34 36 1.68 36 1 36 C1 35.01 1 34.02 1 33 C0.38125 32.690625 -0.2375 32.38125 -0.875 32.0625 C-2.25 31.375 -3.625 30.6875 -5 30 C-5 29.01 -5 28.02 -5 27 C-7.93720508 25.47700477 -10.9168649 24.19899698 -14 23 C-14 22.34 -14 21.68 -14 21 C-14.99 21 -15.98 21 -17 21 C-18.28598045 15.28453134 -18.64496486 9.63194377 -15.4375 4.5 C-14.963125 4.005 -14.48875 3.51 -14 3 C-13.278125 3.144375 -12.55625 3.28875 -11.8125 3.4375 C-10.4203125 3.7159375 -10.4203125 3.7159375 -9 4 C-7.33333333 4.33333333 -5.66666667 4.66666667 -4 5 C-2.68 3.35 -1.36 1.7 0 0 Z " fill="#CEDEED" transform="translate(42,58)"/>
<path d="M0 0 C2.31 0 4.62 0 7 0 C7 0.66 7 1.32 7 2 C7.66 2 8.32 2 9 2 C8.13018782 6.67524044 7.66694409 8.40413811 4.03125 11.65234375 C2.86730901 12.43399712 1.68965926 13.19557584 0.5 13.9375 C-0.09425781 14.33517578 -0.68851563 14.73285156 -1.30078125 15.14257812 C-5.65822666 18 -5.65822666 18 -8 18 C-6.44098818 20.14579161 -6.44098818 20.14579161 -4 22 C-0.37464024 22.2503577 -0.37464024 22.2503577 3 22 C4 23 4 23 4.0625 26.5625 C4.041875 27.696875 4.02125 28.83125 4 30 C3.01 30 2.02 30 1 30 C1 31.32 1 32.64 1 34 C-4.625 37 -4.625 37 -8 37 C-8.33 38.65 -8.66 40.3 -9 42 C-9.66 42 -10.32 42 -11 42 C-11 42.66 -11 43.32 -11 44 C-12.75 44.75 -12.75 44.75 -15 45 C-17.25 43.3125 -17.25 43.3125 -19 41 C-19 39.68 -19 38.36 -19 37 C-19.99 37 -20.98 37 -22 37 C-22 36.01 -22 35.02 -22 34 C-23.98 33.67 -25.96 33.34 -28 33 C-28.33 31.35 -28.66 29.7 -29 28 C-30.65 28 -32.3 28 -34 28 C-29.69230769 24.06153846 -29.69230769 24.06153846 -26.1875 23.75 C-25.465625 23.8325 -24.74375 23.915 -24 24 C-24.33 24.66 -24.66 25.32 -25 26 C-25.66 26 -26.32 26 -27 26 C-25.63459082 30.59273998 -24.00719002 31.61476784 -20 34 C-19.319375 35.03125 -18.63875 36.0625 -17.9375 37.125 C-16.31367143 40.12423372 -16.31367143 40.12423372 -13.75 40.875 C-13.1725 40.91625 -12.595 40.9575 -12 41 C-11.731875 40.236875 -11.46375 39.47375 -11.1875 38.6875 C-10.02271111 36.05139882 -9.34002598 34.64668495 -7 33 C-4.3125 32.8125 -4.3125 32.8125 -2 33 C-1.67 31.02 -1.34 29.04 -1 27 C-1.63808594 26.69707031 -2.27617188 26.39414063 -2.93359375 26.08203125 C-3.75988281 25.66308594 -4.58617188 25.24414062 -5.4375 24.8125 C-6.26121094 24.40644531 -7.08492187 24.00039062 -7.93359375 23.58203125 C-10 22 -10 22 -10.78515625 19.32421875 C-10.85605469 18.55722656 -10.92695312 17.79023437 -11 17 C-13.97 17 -16.94 17 -20 17 C-16.43487084 13.8542978 -13.47768035 12.46209971 -9 11 C-3.53331593 8.10587314 -1.95161484 5.63799843 0 0 Z " fill="#BCD9EF" transform="translate(98,69)"/>
<path d="M0 0 C15.18 0 30.36 0 46 0 C46 3.63 46 7.26 46 11 C36.76 11 27.52 11 18 11 C18 12.65 18 14.3 18 16 C25.92 16 33.84 16 42 16 C42 18.97 42 21.94 42 25 C34.08 25 26.16 25 18 25 C18 26.65 18 28.3 18 30 C17.67 30 17.34 30 17 30 C17 28.02 17 26.04 17 24 C24.92 24 32.84 24 41 24 C41 21.69 41 19.38 41 17 C32.75 17 24.5 17 16 17 C16 14.36 16 11.72 16 9 C25.57 9 35.14 9 45 9 C45 7.02 45 5.04 45 3 C31.14 3 17.28 3 3 3 C3 4.98 3 6.96 3 9 C2.67 9 2.34 9 2 9 C1.67 19.23 1.34 29.46 1 40 C0.67 40 0.34 40 0 40 C0 26.8 0 13.6 0 0 Z " fill="#9886F0" transform="translate(270,58)"/>
<path d="M0 0 C1.65 0 3.3 0 5 0 C5.144375 0.721875 5.28875 1.44375 5.4375 2.1875 C7.81403254 6.46525857 11.69639116 7.91903688 16 10 C15.49396008 12.16874252 15.00016187 13.99967627 14 16 C13.071875 16.2475 12.14375 16.495 11.1875 16.75 C7.16615311 18.32699878 6.08591603 20.30953317 4 24 C1.75 23.875 1.75 23.875 -1 23 C-3 20.25 -3 20.25 -5 17 C-5.9075 16.0925 -6.815 15.185 -7.75 14.25 C-8.4925 13.5075 -9.235 12.765 -10 12 C-10 11.34 -10 10.68 -10 10 C-9.0925 9.649375 -8.185 9.29875 -7.25 8.9375 C-3.08142471 6.45238781 -2.10847374 4.29804263 0 0 Z " fill="#5333FA" transform="translate(82,86)"/>
<path d="M0 0 C1.9375 0.8125 1.9375 0.8125 4 2 C4.33 2.99 4.66 3.98 5 5 C8.51190809 6.22969878 8.51190809 6.22969878 12 7 C12.33 8.65 12.66 10.3 13 12 C12.45730469 12.32613281 11.91460937 12.65226562 11.35546875 12.98828125 C10.64003906 13.42527344 9.92460938 13.86226562 9.1875 14.3125 C8.47980469 14.74175781 7.77210937 15.17101563 7.04296875 15.61328125 C3.91275624 17.73799529 2.10526642 19.84210037 0 23 C-1.12935196 21.58680023 -2.25330626 20.16928595 -3.375 18.75 C-4.00148438 17.96109375 -4.62796875 17.1721875 -5.2734375 16.359375 C-6.78910737 14.28818811 -7.94219634 12.32930503 -9 10 C-8.15115234 9.29423828 -8.15115234 9.29423828 -7.28515625 8.57421875 C-6.55167969 7.95160156 -5.81820312 7.32898437 -5.0625 6.6875 C-4.33160156 6.07261719 -3.60070312 5.45773438 -2.84765625 4.82421875 C-0.76179634 3.04024481 -0.76179634 3.04024481 0 0 Z " fill="#6959F9" transform="translate(84,42)"/>
<path d="M0 0 C11.22 0 22.44 0 34 0 C34 0.33 34 0.66 34 1 C23.11 1 12.22 1 1 1 C1.66 2.65 2.32 4.3 3 6 C3.16464931 8.60836374 3.23392915 11.10319498 3.1953125 13.70703125 C3.1924826 14.43242599 3.18965271 15.15782074 3.18673706 15.90519714 C3.17559799 18.20780368 3.15050566 20.51001227 3.125 22.8125 C3.11496206 24.37955165 3.10583763 25.94660943 3.09765625 27.51367188 C3.0756793 31.34259978 3.04119339 35.17123256 3 39 C6.96 39 10.92 39 15 39 C15 35.37 15 31.74 15 28 C22.92 28 30.84 28 39 28 C39 28.33 39 28.66 39 29 C31.74 29 24.48 29 17 29 C17 32.96 17 36.92 17 41 C11.39 40.67 5.78 40.34 0 40 C0 26.8 0 13.6 0 0 Z " fill="#826DEE" transform="translate(128,58)"/>
<path d="M0 0 C5.61 0 11.22 0 17 0 C18 1 18 1 18.11352539 4.69360352 C18.11336624 6.33871292 18.10766988 7.98382731 18.09765625 9.62890625 C18.0962413 10.49313705 18.09482635 11.35736786 18.09336853 12.24778748 C18.08775239 15.01939292 18.07519719 17.7909188 18.0625 20.5625 C18.05748708 22.4368478 18.05292381 24.31119685 18.04882812 26.18554688 C18.03862681 30.79042021 18.01905467 35.3951206 18 40 C12.06 40 6.12 40 0 40 C0 26.8 0 13.6 0 0 Z M2 2 C2 14.21 2 26.42 2 39 C6.62 39 11.24 39 16 39 C16 26.79 16 14.58 16 2 C11.38 2 6.76 2 2 2 Z " fill="#9280E8" transform="translate(375,58)"/>
<path d="M0 0 C15.18 0 30.36 0 46 0 C46 3.63 46 7.26 46 11 C45.34 11 44.68 11 44 11 C44 8.36 44 5.72 44 3 C30.14 3 16.28 3 2 3 C2 4.98 2 6.96 2 9 C9.59 9 17.18 9 25 9 C25 9.33 25 9.66 25 10 C16.75 10 8.5 10 0 10 C0 6.7 0 3.4 0 0 Z " fill="#7B66E4" transform="translate(399,58)"/>
<path d="M0 0 C-1.38082898 3.14756649 -2.94799155 5.13883972 -5.4765625 7.453125 C-6.146875 8.071875 -6.8171875 8.690625 -7.5078125 9.328125 C-8.20648438 9.96234375 -8.90515625 10.5965625 -9.625 11.25 C-10.33140625 11.8996875 -11.0378125 12.549375 -11.765625 13.21875 C-13.50572178 14.81775785 -15.25056662 16.41122239 -17 18 C-17.66 17.01 -18.32 16.02 -19 15 C-18.67 14.01 -18.34 13.02 -18 12 C-16.68 12 -15.36 12 -14 12 C-14 11.34 -14 10.68 -14 10 C-14.66 9.67 -15.32 9.34 -16 9 C-16 7.35 -16 5.7 -16 4 C-19.06860631 3.67472392 -19.06860631 3.67472392 -21.04296875 5.75 C-21.75066406 6.4925 -22.45835937 7.235 -23.1875 8 C-23.90292969 8.7425 -24.61835938 9.485 -25.35546875 10.25 C-25.89816406 10.8275 -26.44085938 11.405 -27 12 C-27.66 11.67 -28.32 11.34 -29 11 C-20.65052971 -0.32879669 -13.69953577 -1.49202865 0 0 Z " fill="#5F43F5" transform="translate(266,58)"/>
<path d="M0 0 C0.7734375 0.495 0.7734375 0.495 1.5625 1 C4.76898439 2.31548078 7.56554703 2.064801 11 2 C12 3 12 3 12.0625 6.5625 C12.041875 7.696875 12.02125 8.83125 12 10 C11.01 10 10.02 10 9 10 C9 11.32 9 12.64 9 14 C3.375 17 3.375 17 0 17 C-0.33 18.65 -0.66 20.3 -1 22 C-1.66 22 -2.32 22 -3 22 C-3 22.66 -3 23.32 -3 24 C-4.75 24.75 -4.75 24.75 -7 25 C-9.25 23.3125 -9.25 23.3125 -11 21 C-11 19.68 -11 18.36 -11 17 C-11.99 17 -12.98 17 -14 17 C-14 16.01 -14 15.02 -14 14 C-16.97 13.505 -16.97 13.505 -20 13 C-20.33 11.35 -20.66 9.7 -21 8 C-22.65 8 -24.3 8 -26 8 C-21.69230769 4.06153846 -21.69230769 4.06153846 -18.1875 3.75 C-17.465625 3.8325 -16.74375 3.915 -16 4 C-16.33 4.66 -16.66 5.32 -17 6 C-17.66 6 -18.32 6 -19 6 C-17.63459082 10.59273998 -16.00719002 11.61476784 -12 14 C-11.319375 15.03125 -10.63875 16.0625 -9.9375 17.125 C-8.31367143 20.12423372 -8.31367143 20.12423372 -5.75 20.875 C-5.1725 20.91625 -4.595 20.9575 -4 21 C-3.731875 20.236875 -3.46375 19.47375 -3.1875 18.6875 C-2.02271111 16.05139882 -1.34002598 14.64668495 1 13 C3.6875 12.8125 3.6875 12.8125 6 13 C6.33 11.02 6.66 9.04 7 7 C4.69 5.68 2.38 4.36 0 3 C0 2.01 0 1.02 0 0 Z " fill="#DBD7FD" transform="translate(90,89)"/>
<path d="M0 0 C-3.63 3.3 -7.26 6.6 -11 10 C-10.67 11.32 -10.34 12.64 -10 14 C-9.34 14.33 -8.68 14.66 -8 15 C-8 15.99 -8 16.98 -8 18 C-7.360625 18.103125 -6.72125 18.20625 -6.0625 18.3125 C-5.0415625 18.6528125 -5.0415625 18.6528125 -4 19 C-3.67 19.99 -3.34 20.98 -3 22 C-4.33396644 21.33460106 -5.66710905 20.66755069 -7 20 C-7.91136719 19.54882812 -8.82273437 19.09765625 -9.76171875 18.6328125 C-11.20998047 17.88644531 -11.20998047 17.88644531 -12.6875 17.125 C-13.66074219 16.63257812 -14.63398438 16.14015625 -15.63671875 15.6328125 C-18 14 -18 14 -18.89453125 11.8671875 C-18.92933594 11.25101563 -18.96414062 10.63484375 -19 10 C-18.67 9.67 -18.34 9.34 -18 9 C-17.76924918 7.65252916 -17.58846937 6.29622435 -17.4375 4.9375 C-17.293125 3.638125 -17.14875 2.33875 -17 1 C-15.9171875 1.2165625 -15.9171875 1.2165625 -14.8125 1.4375 C-13.4203125 1.7159375 -13.4203125 1.7159375 -12 2 C-10.33333333 2.33333333 -8.66666667 2.66666667 -7 3 C-7 2.34 -7 1.68 -7 1 C-3.375 -1.125 -3.375 -1.125 0 0 Z " fill="#8381F4" transform="translate(45,64)"/>
<path d="M0 0 C3 -0.3125 3 -0.3125 6 0 C8 2 8 2 8 5 C12.29 5 16.58 5 21 5 C21 4.01 21 3.02 21 2 C20.34 1.67 19.68 1.34 19 1 C19.99 1 20.98 1 22 1 C22 2.98 22 4.96 22 7 C21.28972656 7.06058594 20.57945313 7.12117188 19.84765625 7.18359375 C18.92855469 7.26738281 18.00945313 7.35117188 17.0625 7.4375 C16.14597656 7.51871094 15.22945312 7.59992188 14.28515625 7.68359375 C12.03840268 7.76044976 12.03840268 7.76044976 11 9 C9.48071962 9.07179964 7.95832518 9.08392007 6.4375 9.0625 C5.61121094 9.05347656 4.78492188 9.04445313 3.93359375 9.03515625 C3.29550781 9.02355469 2.65742188 9.01195313 2 9 C2 8.01 2 7.02 2 6 C1.34 6 0.68 6 0 6 C0 7.65 0 9.3 0 11 C3.3 11.33 6.6 11.66 10 12 C5.80751457 14.09624272 5.19329002 14.36281926 1 13 C-1.3125 11.4375 -1.3125 11.4375 -3 10 C-2.25 3.375 -2.25 3.375 0 0 Z " fill="#DBEFFC" transform="translate(24,92)"/>
<path d="M0 0 C1.65 0 3.3 0 5 0 C5.144375 0.721875 5.28875 1.44375 5.4375 2.1875 C7.81403254 6.46525857 11.69639116 7.91903688 16 10 C15.49396008 12.16874252 15.00016187 13.99967627 14 16 C13.071875 16.2475 12.14375 16.495 11.1875 16.75 C7.16615311 18.32699878 6.08591603 20.30953317 4 24 C1.75 23.875 1.75 23.875 -1 23 C-3 20.25 -3 20.25 -5 17 C-5.9075 16.0925 -6.815 15.185 -7.75 14.25 C-8.4925 13.5075 -9.235 12.765 -10 12 C-10 11.34 -10 10.68 -10 10 C-9.0925 9.649375 -8.185 9.29875 -7.25 8.9375 C-3.08142471 6.45238781 -2.10847374 4.29804263 0 0 Z M-1 6 C-1 7.32 -1 8.64 -1 10 C-2.65 10.33 -4.3 10.66 -6 11 C-6 11.99 -6 12.98 -6 14 C-5.34 14 -4.68 14 -4 14 C-4 14.99 -4 15.98 -4 17 C-2.75 18.75 -2.75 18.75 -1 20 C-0.01 20 0.98 20 2 20 C2.33 20.99 2.66 21.98 3 23 C3.0825 22.21625 3.165 21.4325 3.25 20.625 C4 18 4 18 5.75 16.8125 C7.38590786 16.22175549 9.03364683 15.66346382 10.6875 15.125 C11.450625 14.75375 12.21375 14.3825 13 14 C13.67626966 11.97285023 13.67626966 11.97285023 14 10 C12.21046815 9.16209211 10.41830305 8.32980604 8.625 7.5 C7.62726563 7.0359375 6.62953125 6.571875 5.6015625 6.09375 C2.6420486 4.84950992 1.84554038 4.57722981 -1 6 Z " fill="#675FEA" transform="translate(82,86)"/>
<path d="M0 0 C1 1 1 1 1.25 4.1875 C2.18288316 8.92965605 3.72372774 10.55571378 7 14 C6.67 14.66 6.34 15.32 6 16 C4 14.625 4 14.625 2 13 C2 12.34 2 11.68 2 11 C1.01 11 0.02 11 -1 11 C-1.33 9.35 -1.66 7.7 -2 6 C-2.99 6 -3.98 6 -5 6 C-5 7.32 -5 8.64 -5 10 C-5.99 10 -6.98 10 -8 10 C-8 11.32 -8 12.64 -8 14 C-8.99 14 -9.98 14 -11 14 C-11 14.99 -11 15.98 -11 17 C-12.65 17.66 -14.3 18.32 -16 19 C-15.55090939 17.51800098 -15.09043436 16.03944764 -14.625 14.5625 C-14.36976562 13.73878906 -14.11453125 12.91507813 -13.8515625 12.06640625 C-13 10 -13 10 -11 9 C-9.94978897 7.15028304 -9.94978897 7.15028304 -9 5 C-6.82741585 0.24747218 -5.22130131 -0.26775904 0 0 Z " fill="#ACA7FB" transform="translate(56,46)"/>
<path d="M0 0 C0.33 0.99 0.66 1.98 1 3 C-0.3125 5.1875 -0.3125 5.1875 -2 7 C-2.66 7 -3.32 7 -4 7 C-4 7.66 -4 8.32 -4 9 C-7.85645121 9.22036864 -10.49223216 8.60355101 -14 7 C-13.979375 8.2375 -13.95875 9.475 -13.9375 10.75 C-13.88566682 13.8599909 -14.217777 15.87110801 -15 19 C-11.37 20.98 -7.74 22.96 -4 25 C-4 26.32 -4 27.64 -4 29 C-3.360625 29.103125 -2.72125 29.20625 -2.0625 29.3125 C-1.381875 29.539375 -0.70125 29.76625 0 30 C0.33 30.99 0.66 31.98 1 33 C-1 32 -3 31 -5 30 C-5 29.01 -5 28.02 -5 27 C-7.93720508 25.47700477 -10.9168649 24.19899698 -14 23 C-14 22.34 -14 21.68 -14 21 C-14.99 21 -15.98 21 -17 21 C-18.28598045 15.28453134 -18.64496486 9.63194377 -15.4375 4.5 C-14.963125 4.005 -14.48875 3.51 -14 3 C-13.278125 3.144375 -12.55625 3.28875 -11.8125 3.4375 C-10.4203125 3.7159375 -10.4203125 3.7159375 -9 4 C-7.33333333 4.33333333 -5.66666667 4.66666667 -4 5 C-2.68 3.35 -1.36 1.7 0 0 Z " fill="#E4E5FD" transform="translate(42,58)"/>
<path d="M0 0 C2.3125 -0.25 2.3125 -0.25 5 0 C6.875 1.8125 6.875 1.8125 8 4 C7.67 4.99 7.34 5.98 7 7 C6.01 6.01 5.02 5.02 4 4 C0.10269271 5.47828897 -0.94269008 7.48542888 -3 11 C-5.6289281 13.38246609 -6.38834178 14 -10 14 C-9.52949219 14.53109375 -9.05898437 15.0621875 -8.57421875 15.609375 C-7.95160156 16.31578125 -7.32898438 17.0221875 -6.6875 17.75 C-6.07261719 18.44609375 -5.45773438 19.1421875 -4.82421875 19.859375 C0 25.52034261 0 25.52034261 0 29 C-0.99 28.67 -1.98 28.34 -3 28 C-3 26.68 -3 25.36 -3 24 C-3.99 23.67 -4.98 23.34 -6 23 C-6 22.34 -6 21.68 -6 21 C-7.98 20.67 -9.96 20.34 -12 20 C-12 17.36 -12 14.72 -12 12 C-10.88625 11.4225 -9.7725 10.845 -8.625 10.25 C-5.66807857 8.57739798 -4.07684279 7.35017758 -3 4 C-2.34 4 -1.68 4 -1 4 C-0.67 2.68 -0.34 1.36 0 0 Z " fill="#E2DEFE" transform="translate(82,37)"/>
<path d="M0 0 C-1.23078549 4.92314194 -2.68740225 7.26518192 -7 10 C-7.99 10 -8.98 10 -10 10 C-9.34 11.65 -8.68 13.3 -8 15 C-8.99 14.34 -9.98 13.68 -11 13 C-11 11.68 -11 10.36 -11 9 C-10.34 8.67 -9.68 8.34 -9 8 C-10.98 8.33 -12.96 8.66 -15 9 C-15 8.34 -15 7.68 -15 7 C-16.65 7 -18.3 7 -20 7 C-19.67 6.34 -19.34 5.68 -19 5 C-17.8553125 5.0309375 -17.8553125 5.0309375 -16.6875 5.0625 C-13.89814214 5.12942841 -13.89814214 5.12942841 -11 4 C-11 3.34 -11 2.68 -11 2 C-7.36576791 -0.32590854 -4.22911669 -0.16265833 0 0 Z " fill="#BFDFF6" transform="translate(82,86)"/>
<path d="M0 0 C5.72915394 -0.04956675 11.45818207 -0.08579861 17.1875 -0.10986328 C19.13511328 -0.11989919 21.08271157 -0.13353088 23.03027344 -0.15087891 C25.83532417 -0.17523328 28.64017505 -0.18650737 31.4453125 -0.1953125 C32.31116974 -0.20563507 33.17702698 -0.21595764 34.06912231 -0.22659302 C38.78902879 -0.22746211 42.56131525 0.17527754 47 2 C47 2.33 47 2.66 47 3 C32.15 2.67 17.3 2.34 2 2 C1.67 2.99 1.34 3.98 1 5 C0.67 3.35 0.34 1.7 0 0 Z " fill="#624BDF" transform="translate(129,59)"/>
<path d="M0 0 C2.02045442 0.60183749 4.02111039 1.27306096 6 2 C6.33 2.66 6.66 3.32 7 4 C7.33 3.34 7.66 2.68 8 2 C11.0625 1.375 11.0625 1.375 14 1 C12.4748581 5.18215012 9.42471454 7.24573131 5.9375 9.75 C5.10508789 10.36681641 5.10508789 10.36681641 4.25585938 10.99609375 C0.15916995 14 0.15916995 14 -1 14 C-1.02694851 12.04174127 -1.04637218 10.08337774 -1.0625 8.125 C-1.07410156 7.03445312 -1.08570313 5.94390625 -1.09765625 4.8203125 C-1 2 -1 2 0 0 Z " fill="#664CF4" transform="translate(422,73)"/>
<path d="M0 0 C1.32 0.33 2.64 0.66 4 1 C3.31292969 1.56847656 2.62585938 2.13695313 1.91796875 2.72265625 C-3.32660777 7.2169357 -6.81430707 10.4429212 -9 17 C-10.3125 19.4375 -10.3125 19.4375 -12 21 C-15 21.5625 -15 21.5625 -18 21 C-19.9375 18.75 -19.9375 18.75 -21 16 C-20.6875 13.6875 -20.6875 13.6875 -20 12 C-20 12.99 -20 13.98 -20 15 C-14.94990405 15.93786082 -14.94990405 15.93786082 -10 15 C-9.9071875 13.9171875 -9.9071875 13.9171875 -9.8125 12.8125 C-8.74238798 9.1082661 -6.80096168 7.60554575 -4 5 C-2.64444707 3.35135455 -1.30368347 1.68996005 0 0 Z " fill="#9695F8" transform="translate(68,80)"/>
<path d="M0 0 C1.88391785 3.26545761 2.49287967 6.28111761 3 10 C1.68 10.33 0.36 10.66 -1 11 C-1 11.99 -1 12.98 -1 14 C-3.97 13.505 -3.97 13.505 -7 13 C-7 12.01 -7 11.02 -7 10 C-7.66 9.34 -8.32 8.68 -9 8 C-7.87811441 6.85111717 -6.75238316 5.70598863 -5.625 4.5625 C-4.99851563 3.92441406 -4.37203125 3.28632812 -3.7265625 2.62890625 C-2 1 -2 1 0 0 Z " fill="#5535FC" transform="translate(249,60)"/>
<path d="M0 0 C0 0.99 0 1.98 0 3 C-0.99 3.33 -1.98 3.66 -3 4 C-1.68 4.66 -0.36 5.32 1 6 C-2.75 9 -2.75 9 -5 9 C-5 10.65 -5 12.3 -5 14 C-6.5 12.6875 -6.5 12.6875 -8 11 C-8 10.01 -8 9.02 -8 8 C-10.97 8 -13.94 8 -17 8 C-12.93557642 3.93557642 -8.75436249 2.911806 -3.328125 1.61328125 C-1.05580528 1.22369095 -1.05580528 1.22369095 0 0 Z " fill="#D4E7F7" transform="translate(95,78)"/>
<path d="M0 0 C2 2.0625 2 2.0625 3 5 C2.93059081 8.95632375 2.64554288 11.17637633 0.1875 14.3125 C-3.00110964 16.77228458 -4.92594596 18 -9 18 C-8.505 16.515 -8.505 16.515 -8 15 C-4.4375 13.3125 -4.4375 13.3125 -1 12 C-0.79029441 7.85906302 -0.79029441 7.85906302 -2 4 C-4.32156597 3.59270772 -6.6568787 3.25561323 -9 3 C-9 2.34 -9 1.68 -9 1 C-5.88122044 -0.55938978 -3.42744229 -0.3607834 0 0 Z " fill="#EEEEFD" transform="translate(99,43)"/>
<path d="M0 0 C16.25650224 -1.0735426 16.25650224 -1.0735426 20.53125 1.55859375 C22.125 3.5 22.125 3.5 24 7 C23.01 7 22.02 7 21 7 C21 6.34 21 5.68 21 5 C15.72 4.34 10.44 3.68 5 3 C4.67 3.66 4.34 4.32 4 5 C2.68 3.35 1.36 1.7 0 0 Z " fill="#8975E6" transform="translate(209,58)"/>
<path d="M0 0 C1.25393555 0.03383789 1.25393555 0.03383789 2.53320312 0.06835938 C4.58541149 0.1269939 6.63669202 0.21666785 8.6875 0.3125 C7.875 2.25 7.875 2.25 6.6875 4.3125 C5.6975 4.6425 4.7075 4.9725 3.6875 5.3125 C3.3575 4.6525 3.0275 3.9925 2.6875 3.3125 C-4.2848306 2.46327296 -4.2848306 2.46327296 -10.68359375 4.80078125 C-12.01703294 6.0182692 -13.31312307 7.27859678 -14.55859375 8.5859375 C-16.36839936 10.36752788 -17.99789028 11.30526324 -20.3125 12.3125 C-19.41948344 11.24763145 -18.5229053 10.18574959 -17.625 9.125 C-17.12613281 8.53332031 -16.62726563 7.94164063 -16.11328125 7.33203125 C-15.22189453 6.33236328 -15.22189453 6.33236328 -14.3125 5.3125 C-13.61125 4.4153125 -12.91 3.518125 -12.1875 2.59375 C-8.13653784 -0.62060041 -5.00717708 -0.25687965 0 0 Z " fill="#A899EB" transform="translate(257.3125,57.6875)"/>
<path d="M0 0 C3 1.75 3 1.75 6 4 C6 5.32 6 6.64 6 8 C6.99 8 7.98 8 9 8 C9.99 10.97 10.98 13.94 12 17 C13.65 17 15.3 17 17 17 C17 17.33 17 17.66 17 18 C15.083412 18.02712153 13.1667127 18.04645097 11.25 18.0625 C9.64898437 18.07990234 9.64898437 18.07990234 8.015625 18.09765625 C5.46631499 18.01510087 3.42066409 17.74617558 1 17 C1 16.34 1 15.68 1 15 C3.31 15 5.62 15 8 15 C8 13.02 8 11.04 8 9 C7.01 9 6.02 9 5 9 C4.731875 8.195625 4.46375 7.39125 4.1875 6.5625 C3.795625 5.716875 3.40375 4.87125 3 4 C2.01 3.67 1.02 3.34 0 3 C0 2.01 0 1.02 0 0 Z " fill="#B9C7F3" transform="translate(38,84)"/>
<path d="M0 0 C4.20626034 1.50223584 5.73900021 4.28550034 8 8 C8.66 7.01 9.32 6.02 10 5 C10.66 5 11.32 5 12 5 C12.66 3.68 13.32 2.36 14 1 C14.99 1 15.98 1 17 1 C16.34 1.66 15.68 2.32 15 3 C14.690625 3.94875 14.38125 4.8975 14.0625 5.875 C13.05969262 8.82443346 11.99112118 10.64685679 10 13 C8.125 12.875 8.125 12.875 6 12 C5.26480478 10.02416285 4.60927518 8.01822402 4 6 C2.71927629 3.9659094 1.39712274 1.95597184 0 0 Z " fill="#A39AF9" transform="translate(76,56)"/>
<path d="M0 0 C0.33 0 0.66 0 1 0 C1.33 2.64 1.66 5.28 2 8 C7.61 8 13.22 8 19 8 C19 8.66 19 9.32 19 10 C15.82606311 11.58696844 12.41825795 11.1431447 8.9375 11.125 C8.19177734 11.12886719 7.44605469 11.13273437 6.67773438 11.13671875 C1.12663501 11.12663501 1.12663501 11.12663501 0 10 C-0.07205511 8.31391034 -0.08386068 6.62499341 -0.0625 4.9375 C-0.05347656 4.01839844 -0.04445312 3.09929687 -0.03515625 2.15234375 C-0.02355469 1.44207031 -0.01195312 0.73179688 0 0 Z " fill="#816EE3" transform="translate(144,68)"/>
<path d="M0 0 C2.66666667 1.33333333 5.33333333 2.66666667 8 4 C7.49396008 6.16874252 7.00016187 7.99967627 6 10 C5.071875 10.2475 4.14375 10.495 3.1875 10.75 C-0.83384689 12.32699878 -1.91408397 14.30953317 -4 18 C-6.3125 17.875 -6.3125 17.875 -9 17 C-10.8125 13.9375 -10.8125 13.9375 -12 11 C-11.01 11.33 -10.02 11.66 -9 12 C-9 12.66 -9 13.32 -9 14 C-7.68 14.33 -6.36 14.66 -5 15 C-4.67 14.01 -4.34 13.02 -4 12 C-1.8396041 10.07107509 -0.03659805 9.01361788 2.6875 8 C3.450625 7.67 4.21375 7.34 5 7 C5.33 6.01 5.66 5.02 6 4 C5.38125 3.896875 4.7625 3.79375 4.125 3.6875 C2 3 2 3 0 0 Z " fill="#8F7BF8" transform="translate(90,92)"/>
<path d="M0 0 C3.33333333 0.66666667 6.66666667 1.33333333 10 2 C10 1.34 10 0.68 10 0 C10.66 0.33 11.32 0.66 12 1 C9.85361521 4.21957718 9.565096 4.37542494 6.125 5.375 C2.17024519 6.71961663 0.30883021 8.44055343 -2 12 C-1.34 8.04 -0.68 4.08 0 0 Z " fill="#9DB4F1" transform="translate(28,65)"/>
<path d="M0 0 C3.125 -0.1875 3.125 -0.1875 6 0 C5.67 0.99 5.34 1.98 5 3 C3.02 3.33 1.04 3.66 -1 4 C-0.67 5.98 -0.34 7.96 0 10 C3.3 10.66 6.6 11.32 10 12 C5.80751457 14.09624272 5.19329002 14.36281926 1 13 C-1.3125 11.4375 -1.3125 11.4375 -3 10 C-2.25 3.375 -2.25 3.375 0 0 Z " fill="#EAF2F8" transform="translate(24,92)"/>
<path d="M0 0 C2.31 0 4.62 0 7 0 C7 0.66 7 1.32 7 2 C7.66 2 8.32 2 9 2 C8.67 3.98 8.34 5.96 8 8 C7.67 8 7.34 8 7 8 C6.67 6.35 6.34 4.7 6 3 C4.68 2.67 3.36 2.34 2 2 C2 2.99 2 3.98 2 5 C1.34 5 0.68 5 0 5 C0 5.99 0 6.98 0 8 C-1.8125 9.75 -1.8125 9.75 -4 11 C-4.99 10.67 -5.98 10.34 -7 10 C-6.21625 9.278125 -5.4325 8.55625 -4.625 7.8125 C-2.15587562 5.16700959 -1.06739722 3.39626389 0 0 Z " fill="#EFF7FE" transform="translate(98,69)"/>
<path d="M0 0 C0.33 0.66 0.66 1.32 1 2 C0.67 2.66 0.34 3.32 0 4 C1.65 4 3.3 4 5 4 C4.67 4.99 4.34 5.98 4 7 C2.824375 7.1546875 2.824375 7.1546875 1.625 7.3125 C-1.33045181 7.77595022 -1.33045181 7.77595022 -3 11 C-3.66 11 -4.32 11 -5 11 C-5.33 11.99 -5.66 12.98 -6 14 C-8.31 14 -10.62 14 -13 14 C-13 13.67 -13 13.34 -13 13 C-12.0925 12.938125 -11.185 12.87625 -10.25 12.8125 C-6.12101388 11.78025347 -5.24581286 10.56232385 -3 7 C-1.88732976 4.69347757 -0.9364807 2.38802578 0 0 Z " fill="#C6D9F8" transform="translate(62,89)"/>
<path d="M0 0 C0.66 0.33 1.32 0.66 2 1 C0.68 1.33 -0.64 1.66 -2 2 C-1.29423828 2.79664063 -1.29423828 2.79664063 -0.57421875 3.609375 C0.04839844 4.31578125 0.67101562 5.0221875 1.3125 5.75 C1.92738281 6.44609375 2.54226562 7.1421875 3.17578125 7.859375 C8 13.52034261 8 13.52034261 8 17 C7.01 16.67 6.02 16.34 5 16 C5 14.68 5 13.36 5 12 C4.01 11.67 3.02 11.34 2 11 C2 10.34 2 9.68 2 9 C0.68 9 -0.64 9 -2 9 C-3.35439668 6.29120665 -3.06501451 3.99066732 -3 1 C-2.01 0.67 -1.02 0.34 0 0 Z " fill="#D3CEFD" transform="translate(74,49)"/>
<path d="M0 0 C2.75059381 -0.08107646 5.49879021 -0.14052813 8.25 -0.1875 C9.02730469 -0.21263672 9.80460938 -0.23777344 10.60546875 -0.26367188 C14.11313936 -0.30864201 16.38973005 -0.32397047 19.53125 1.34375 C21 3 21 3 21.25 5.6875 C21.1675 6.450625 21.085 7.21375 21 8 C19.68 8.33 18.36 8.66 17 9 C17.33 7.35 17.66 5.7 18 4 C14.34827367 1.73150334 10.9872882 1.6104049 6.75 1.375 C4.85507813 1.26285156 4.85507813 1.26285156 2.921875 1.1484375 C1.47554687 1.07496094 1.47554687 1.07496094 0 1 C0 0.67 0 0.34 0 0 Z " fill="#563EDE" transform="translate(146,67)"/>
<path d="M0 0 C1.485 0.99 1.485 0.99 3 2 C3 2.99 3 3.98 3 5 C3.99 5.33 4.98 5.66 6 6 C7.68359375 7.7421875 7.68359375 7.7421875 9.4375 9.875 C11.75795299 12.68861414 14.00589673 14.90741794 17 17 C15.02 16.67 13.04 16.34 11 16 C11 15.34 11 14.68 11 14 C10.34 14 9.68 14 9 14 C7.39138269 12.28975524 5.86061657 10.50561171 4.375 8.6875 C3.14910156 7.20830078 3.14910156 7.20830078 1.8984375 5.69921875 C0 3 0 3 0 0 Z " fill="#EAE9FE" transform="translate(57,51)"/>
<path d="M0 0 C0.33 0.66 0.66 1.32 1 2 C-1.09016808 6.54918935 -4.13620455 8.99482576 -8 12 C-7.67 13.32 -7.34 14.64 -7 16 C-8.9375 15.1875 -8.9375 15.1875 -11 14 C-11.33 13.01 -11.66 12.02 -12 11 C-10.3603125 10.1646875 -10.3603125 10.1646875 -8.6875 9.3125 C-5.28976779 7.3875751 -3.7664695 5.532939 -2 2 C-1.34 1.34 -0.68 0.68 0 0 Z " fill="#9085F7" transform="translate(84,40)"/>
<path d="M0 0 C0.33 0 0.66 0 1 0 C1 1.98 1 3.96 1 6 C0.360625 6.103125 -0.27875 6.20625 -0.9375 6.3125 C-1.618125 6.539375 -2.29875 6.76625 -3 7 C-3.33 7.99 -3.66 8.98 -4 10 C-3.34 10 -2.68 10 -2 10 C-2.33 10.99 -2.66 11.98 -3 13 C-4.70884005 11.37660195 -6.37446717 9.70680947 -8 8 C-8 7.34 -8 6.68 -8 6 C-7.05125 5.566875 -6.1025 5.13375 -5.125 4.6875 C-1.79958063 3.20697799 -1.79958063 3.20697799 0 0 Z " fill="#6852F4" transform="translate(80,90)"/>
<path d="M0 0 C0.33 0.99 0.66 1.98 1 3 C5.97906259 3.75427297 5.97906259 3.75427297 11 4 C9.8125 6.5 9.8125 6.5 8 9 C5.5 9.625 5.5 9.625 3 9 C0.36439287 5.72821183 0 4.27931853 0 0 Z " fill="#848DEF" transform="translate(47,92)"/>
<path d="M0 0 C2.66666667 1.33333333 5.33333333 2.66666667 8 4 C8 4.66 8 5.32 8 6 C8.66 6 9.32 6 10 6 C10.33 6.99 10.66 7.98 11 9 C12.29355827 10.37195574 13.62298702 11.71182656 15 13 C10.32307692 11.52307692 10.32307692 11.52307692 8.6875 8.875 C8.460625 8.25625 8.23375 7.6375 8 7 C7.34 7 6.68 7 6 7 C6 6.34 6 5.68 6 5 C5.38125 4.9175 4.7625 4.835 4.125 4.75 C2 4 2 4 0.75 1.9375 C0.5025 1.298125 0.255 0.65875 0 0 Z " fill="#948AF9" transform="translate(58,59)"/>
<path d="M0 0 C1.98 0.495 1.98 0.495 4 1 C4.12375 1.639375 4.2475 2.27875 4.375 2.9375 C4.684375 3.9584375 4.684375 3.9584375 5 5 C5.66 5.33 6.32 5.66 7 6 C7 6.99 7 7.98 7 9 C7.9590625 9.1546875 7.9590625 9.1546875 8.9375 9.3125 C9.9584375 9.6528125 9.9584375 9.6528125 11 10 C11.33 10.99 11.66 11.98 12 13 C10 12 8 11 6 10 C6 9.01 6 8.02 6 7 C5.21625 6.731875 4.4325 6.46375 3.625 6.1875 C1 5 1 5 -1 2 C-0.67 1.34 -0.34 0.68 0 0 Z " fill="#7F78F6" transform="translate(30,73)"/>
<path d="M0 0 C0.33 0.99 0.66 1.98 1 3 C-0.3125 5.1875 -0.3125 5.1875 -2 7 C-2.66 7 -3.32 7 -4 7 C-4 7.66 -4 8.32 -4 9 C-7.62528568 9.20140476 -9.86501708 8.85776765 -13 7 C-13 6.34 -13 5.68 -13 5 C-12.39671875 5.05800781 -11.7934375 5.11601563 -11.171875 5.17578125 C-8.69629341 5.31553182 -6.4561015 5.35932638 -4 5 C-1.39089037 2.6816144 -1.39089037 2.6816144 0 0 Z " fill="#D5E2FA" transform="translate(42,58)"/>
<path d="M0 0 C0.99 0.33 1.98 0.66 3 1 C-0.625 6.75 -0.625 6.75 -4 9 C-4.99 9 -5.98 9 -7 9 C-6.34 10.65 -5.68 12.3 -5 14 C-5.99 13.34 -6.98 12.68 -8 12 C-8 10.68 -8 9.36 -8 8 C-3.88888889 4 -3.88888889 4 0 4 C0 2.68 0 1.36 0 0 Z " fill="#A8A7F7" transform="translate(79,87)"/>
<path d="M0 0 C4.88049925 3.9419417 9.0580583 8.11950075 13 13 C9.23349341 12.432908 7.45745882 10.86223321 4.8125 8.1875 C3.77029297 7.15689453 3.77029297 7.15689453 2.70703125 6.10546875 C0.98948387 3.98702931 0.40089227 2.66264268 0 0 Z " fill="#8874E5" transform="translate(253,85)"/>
<path d="M0 0 C0.7734375 0.495 0.7734375 0.495 1.5625 1 C4.76898439 2.31548078 7.56554703 2.064801 11 2 C12 3 12 3 12.0625 6.5625 C12.041875 7.696875 12.02125 8.83125 12 10 C11.34 10 10.68 10 10 10 C10 8.02 10 6.04 10 4 C8.9171875 4.309375 8.9171875 4.309375 7.8125 4.625 C4.55358415 5.05952211 2.91695496 4.41680669 0 3 C0 2.01 0 1.02 0 0 Z " fill="#EAEBFD" transform="translate(90,89)"/>
<path d="M0 0 C0.66 0.33 1.32 0.66 2 1 C0.54347826 6.58333333 0.54347826 6.58333333 -1.875 8.4375 C-4.31555804 9.08353007 -5.64656559 8.84051229 -8 8 C-5.58443874 4.80800833 -3.31996462 2.25283313 0 0 Z " fill="#7862F1" transform="translate(413,76)"/>
<path d="M0 0 C0.33 1.65 0.66 3.3 1 5 C0.34 4.34 -0.32 3.68 -1 3 C-2.32 3 -3.64 3 -5 3 C-6.57518451 4.74477633 -6.57518451 4.74477633 -7.75 7 C-8.17796875 7.7425 -8.6059375 8.485 -9.046875 9.25 C-9.36140625 9.8275 -9.6759375 10.405 -10 11 C-10.99 10.67 -11.98 10.34 -13 10 C-12.34 9.67 -11.68 9.34 -11 9 C-9.94978897 7.15028304 -9.94978897 7.15028304 -9 5 C-6.79710315 0.18116315 -5.24175513 -0.13794092 0 0 Z " fill="#EBEBFD" transform="translate(56,46)"/>
<path d="M0 0 C-0.33 0.66 -0.66 1.32 -1 2 C-1.66 2 -2.32 2 -3 2 C-1.75023244 5.65316671 -1.32901247 6.78065836 2 9 C0.02 9 -1.96 9 -4 9 C-4.33 7.35 -4.66 5.7 -5 4 C-6.65 4 -8.3 4 -10 4 C-6.58908673 0.88145073 -4.68377325 -0.53528837 0 0 Z " fill="#DADCF9" transform="translate(74,93)"/>
<path d="M0 0 C0.33 2.97 0.66 5.94 1 9 C-1 6 -1 6 -2 4 C-4.32156597 3.59270772 -6.6568787 3.25561323 -9 3 C-9 2.34 -9 1.68 -9 1 C-6.04335481 -0.4783226 -3.25770263 -0.06032783 0 0 Z " fill="#DBEDFC" transform="translate(99,43)"/>
<path d="M0 0 C1 3 1 3 -0.0625 6.125 C-2 9 -2 9 -5.1875 9.875 C-6.5796875 9.936875 -6.5796875 9.936875 -8 10 C-8 9.34 -8 8.68 -8 8 C-7.01 8 -6.02 8 -5 8 C-4.731875 7.236875 -4.46375 6.47375 -4.1875 5.6875 C-3.05575888 3.12619116 -2.08776599 1.80307062 0 0 Z " fill="#CCC2FB" transform="translate(91,102)"/>
<path d="M0 0 C0.66 0.33 1.32 0.66 2 1 C2 4 2 4 -0.5 6.6875 C-1.325 7.450625 -2.15 8.21375 -3 9 C-4.32 8.34 -5.64 7.68 -7 7 C-4.69 4.69 -2.38 2.38 0 0 Z " fill="#5439EC" transform="translate(247,61)"/>
<path d="M0 0 C1.65 0.33 3.3 0.66 5 1 C4.67 2.65 4.34 4.3 4 6 C2.35 5.67 0.7 5.34 -1 5 C-0.67 3.35 -0.34 1.7 0 0 Z " fill="#DEE7FA" transform="translate(25,82)"/>
<path d="M0 0 C1.65 0.33 3.3 0.66 5 1 C5.375 3.75 5.375 3.75 5 7 C2 9.375 2 9.375 -1 11 C-1.66 10.67 -2.32 10.34 -3 10 C-2.01 9.67 -1.02 9.34 0 9 C0 8.01 0 7.02 0 6 C0.99 6 1.98 6 3 6 C3 4.68 3 3.36 3 2 C2.34 1.67 1.68 1.34 1 1 C0.67 1.66 0.34 2.32 0 3 C0 2.01 0 1.02 0 0 Z " fill="#D8E8F2" transform="translate(100,71)"/>
<path d="M0 0 C2.97 0.495 2.97 0.495 6 1 C6.33 2.65 6.66 4.3 7 6 C6.01 6.33 5.02 6.66 4 7 C4 6.01 4 5.02 4 4 C3.01 4 2.02 4 1 4 C0.67 2.68 0.34 1.36 0 0 Z " fill="#5487EB" transform="translate(90,48)"/>
<path d="M0 0 C2.475 0.495 2.475 0.495 5 1 C5 2.65 5 4.3 5 6 C3.68 6 2.36 6 1 6 C0 5 0 5 -0.0625 2.4375 C-0.041875 1.633125 -0.02125 0.82875 0 0 Z " fill="#E1E8FB" transform="translate(37,46)"/>
<path d="M0 0 C0.99 0.33 1.98 0.66 3 1 C1.02 1.99 1.02 1.99 -1 3 C-0.67 3.66 -0.34 4.32 0 5 C2.02463255 5.65213292 2.02463255 5.65213292 4 6 C1 8 1 8 -2 8 C-2 7.34 -2 6.68 -2 6 C-2.66 6 -3.32 6 -4 6 C-2.84826645 3.53199953 -1.95216435 1.95216435 0 0 Z " fill="#D5DFFD" transform="translate(67,84)"/>
<path d="M0 0 C0.9075 0.103125 1.815 0.20625 2.75 0.3125 C2.09 2.2925 1.43 4.2725 0.75 6.3125 C-1.25 5.3125 -1.25 5.3125 -2.25 4.3125 C-3.92542976 4.59854898 -5.59385343 4.93031233 -7.25 5.3125 C-4.05 0.38942308 -4.05 0.38942308 0 0 Z " fill="#5437F2" transform="translate(228.25,82.6875)"/>
<path d="M0 0 C0.33 0.99 0.66 1.98 1 3 C-0.65 4.32 -2.3 5.64 -4 7 C-4.66 5.68 -5.32 4.36 -6 3 C-3.375 0 -3.375 0 0 0 Z " fill="#7B63F1" transform="translate(261,61)"/>
<path d="M0 0 C1.98 0.495 1.98 0.495 4 1 C4 2.65 4 4.3 4 6 C2.35 5.67 0.7 5.34 -1 5 C-0.67 3.35 -0.34 1.7 0 0 Z " fill="#E7F1F7" transform="translate(95,16)"/>
<path d="M0 0 C1.1446875 0.495 1.1446875 0.495 2.3125 1 C4.99069135 2.17436686 4.99069135 2.17436686 8 2 C8.99 1.34 9.98 0.68 11 0 C10 2 9 4 8 6 C4.74456771 5.65120368 3.98126893 4.97866739 1.75 2.4375 C1.1725 1.633125 0.595 0.82875 0 0 Z " fill="#755EEA" transform="translate(243,92)"/>
<path d="M0 0 C1.98 0 3.96 0 6 0 C6.33 2.64 6.66 5.28 7 8 C5.5 6.6875 5.5 6.6875 4 5 C4 4.01 4 3.02 4 2 C2.35 2 0.7 2 -1 2 C-0.67 1.34 -0.34 0.68 0 0 Z " fill="#ACB7F3" transform="translate(83,84)"/>
<path d="M0 0 C0.66 1.32 1.32 2.64 2 4 C1.01 5.485 1.01 5.485 0 7 C-1.65 5.02 -3.3 3.04 -5 1 C-3.35 0.67 -1.7 0.34 0 0 Z " fill="#7D65F1" transform="translate(221,64)"/>
<path d="M0 0 C0.99 0.33 1.98 0.66 3 1 C1.19587357 4.26460973 0.16605307 5.88929795 -3 8 C-3 6.68 -3 5.36 -3 4 C-2.01 4 -1.02 4 0 4 C0 2.68 0 1.36 0 0 Z M-6 8 C-5.01 8.33 -4.02 8.66 -3 9 C-3.99 9.66 -4.98 10.32 -6 11 C-6 10.01 -6 9.02 -6 8 Z " fill="#786FF7" transform="translate(51,52)"/>
<path d="M0 0 C0.66 0.33 1.32 0.66 2 1 C1.67 2.65 1.34 4.3 1 6 C1.66 6.33 2.32 6.66 3 7 C2.67 7.99 2.34 8.98 2 10 C0.35 8.35 -1.3 6.7 -3 5 C-1.125 1.125 -1.125 1.125 0 0 Z " fill="#7366F8" transform="translate(78,49)"/>
<path d="M0 0 C0 3.51716303 -0.82445585 4.37121748 -3 7 C-4.32 6.67 -5.64 6.34 -7 6 C-7 5.34 -7 4.68 -7 4 C-5.68 4 -4.36 4 -3 4 C-3 3.01 -3 2.02 -3 1 C-2.01 0.67 -1.02 0.34 0 0 Z " fill="#E9E4FE" transform="translate(89,62)"/>
<path d="M0 0 C0.99 0.33 1.98 0.66 3 1 C1.1875 3 1.1875 3 -1 5 C-1.99 5 -2.98 5 -4 5 C-4 5.66 -4 6.32 -4 7 C-5.32 6.67 -6.64 6.34 -8 6 C-6.7391988 4.96680187 -5.46596742 3.94875621 -4.1875 2.9375 C-3.47980469 2.36902344 -2.77210937 1.80054687 -2.04296875 1.21484375 C-1.36878906 0.81394531 -0.69460937 0.41304688 0 0 Z " fill="#CBC2FE" transform="translate(76,77)"/>
<path d="M0 0 C0.99 0.33 1.98 0.66 3 1 C3 1.66 3 2.32 3 3 C3.99 3 4.98 3 6 3 C6 3.99 6 4.98 6 6 C4.35 6 2.7 6 1 6 C0.67 4.02 0.34 2.04 0 0 Z " fill="#5660EF" transform="translate(88,49)"/>
<path d="M0 0 C1.32 0.66 2.64 1.32 4 2 C3.34 3.32 2.68 4.64 2 6 C1.01 5.67 0.02 5.34 -1 5 C-0.67 3.35 -0.34 1.7 0 0 Z " fill="#F1F3F9" transform="translate(59,34)"/>
<path d="M0 0 C0.66 0.33 1.32 0.66 2 1 C0.35 2.98 -1.3 4.96 -3 7 C-3.99 6.34 -4.98 5.68 -6 5 C-4.02 3.35 -2.04 1.7 0 0 Z " fill="#8772EC" transform="translate(421,70)"/>
<path d="M0 0 C-1.04874998 2.62187494 -1.64931313 3.79371361 -4.125 5.25 C-4.74375 5.4975 -5.3625 5.745 -6 6 C-6 4.35 -6 2.7 -6 1 C-3 0 -3 0 0 0 Z " fill="#836FEC" transform="translate(436,74)"/>
<path d="M0 0 C1.32 0 2.64 0 4 0 C3.6875 1.875 3.6875 1.875 3 4 C2.01 4.66 1.02 5.32 0 6 C-0.38218767 4.34385343 -0.71395102 2.67542976 -1 1 C-0.67 0.67 -0.34 0.34 0 0 Z " fill="#735DEC" transform="translate(248,70)"/>
<path d="M0 0 C0.99 0 1.98 0 3 0 C3 0.66 3 1.32 3 2 C4.32 2.33 5.64 2.66 7 3 C3.04 3 -0.92 3 -5 3 C-3.68 2.34 -2.36 1.68 -1 1 C-0.67 0.67 -0.34 0.34 0 0 Z " fill="#C3DFF3" transform="translate(36,99)"/>
<path d="M0 0 C2.97 0.495 2.97 0.495 6 1 C6 2.65 6 4.3 6 6 C4.68 6.33 3.36 6.66 2 7 C2.33 5.35 2.66 3.7 3 2 C2.01 1.34 1.02 0.68 0 0 Z " fill="#8E7BEC" transform="translate(161,69)"/>
<path d="M0 0 C0.66 0.99 1.32 1.98 2 3 C-2.75 7 -2.75 7 -5 7 C-5 6.01 -5 5.02 -5 4 C-4.01 4 -3.02 4 -2 4 C-1.34 2.68 -0.68 1.36 0 0 Z " fill="#8570EC" transform="translate(442,67)"/>
<path d="M0 0 C0.33 0.99 0.66 1.98 1 3 C-0.96466413 4.06775224 -2.96855359 5.06553465 -5 6 C-5.66 5.67 -6.32 5.34 -7 5 C-6.67 4.01 -6.34 3.02 -6 2 C-2.9375 0.8125 -2.9375 0.8125 0 0 Z " fill="#F2EFFF" transform="translate(98,100)"/>
<path d="M0 0 C2.475 0.99 2.475 0.99 5 2 C4.67 3.32 4.34 4.64 4 6 C3.01 6 2.02 6 1 6 C0.67 4.02 0.34 2.04 0 0 Z " fill="#6B52F1" transform="translate(91,94)"/>
<path d="M0 0 C0.99 0 1.98 0 3 0 C3.33 0.99 3.66 1.98 4 3 C4.66 3.33 5.32 3.66 6 4 C5.67 4.99 5.34 5.98 5 7 C3.29115995 5.37660195 1.62553283 3.70680947 0 2 C0 1.34 0 0.68 0 0 Z " fill="#7F6BF1" transform="translate(72,96)"/>
<path d="M0 0 C0.66 0.33 1.32 0.66 2 1 C0.75 3 0.75 3 -1 5 C-2.32 5 -3.64 5 -5 5 C-5 4.01 -5 3.02 -5 2 C-2.625 0.9375 -2.625 0.9375 0 0 Z " fill="#6E84EC" transform="translate(56,95)"/>
<path d="M0 0 C0.99 0 1.98 0 3 0 C3 0.99 3 1.98 3 3 C3.9590625 3.1546875 3.9590625 3.1546875 4.9375 3.3125 C5.618125 3.539375 6.29875 3.76625 7 4 C7.33 4.99 7.66 5.98 8 7 C6 6 4 5 2 4 C2 3.01 2 2.02 2 1 C1.34 0.67 0.68 0.34 0 0 Z " fill="#E4E4FE" transform="translate(35,84)"/>
<path d="M0 0 C3.73487777 0.4979837 5.81237635 0.87491756 9 3 C8.67 3.66 8.34 4.32 8 5 C5.36 3.68 2.72 2.36 0 1 C0 0.67 0 0.34 0 0 Z " fill="#ADA5FA" transform="translate(27,77)"/>
<path d="M0 0 C2.4375 0.375 2.4375 0.375 5 1 C5.33 1.66 5.66 2.32 6 3 C4.35 2.67 2.7 2.34 1 2 C1 2.66 1 3.32 1 4 C0.01 3.67 -0.98 3.34 -2 3 C-1.34 2.01 -0.68 1.02 0 0 Z " fill="#F0F6FC" transform="translate(28,61)"/>
<path d="M0 0 C2.64 0 5.28 0 8 0 C6.71034824 1.37562854 5.37310707 2.70766393 4 4 C3.34 4 2.68 4 2 4 C2 3.01 2 2.02 2 1 C1.34 0.67 0.68 0.34 0 0 Z " fill="#5436F5" transform="translate(252,60)"/>
<path d="M0 0 C2.31 0.33 4.62 0.66 7 1 C5.68 2.65 4.36 4.3 3 6 C0 2.25 0 2.25 0 0 Z " fill="#7262ED" transform="translate(81,59)"/>
</svg>
